<?xml version="1.0" standalone="no"?><!DOCTYPE svg PUBLIC "-//W3C//DTD SVG 1.1//EN" "http://www.w3.org/Graphics/SVG/1.1/DTD/svg11.dtd"><svg t="1596780374621" class="icon" viewBox="0 0 1024 1024" version="1.1" xmlns="http://www.w3.org/2000/svg" p-id="11355" xmlns:xlink="http://www.w3.org/1999/xlink" width="200" height="200"><defs><style type="text/css"></style></defs><path d="M110.617663 813.370221c22.766174 7.713876 47.682677 3.037765 70.073397-13.345688l1.70661 2.662311c-38.228059 23.346422-59.560681 55.942669-59.560681 92.293457C122.836989 969.695677 210.69326 1023.965868 331.79429 1023.965868c64.168528 0 123.695077-16.690644 161.957268-45.054498 12.424119 0.716776 23.517083 0.716776 36.077731 0.034132 38.228059 28.329722 97.720476 45.020366 161.923136 45.020366 121.066898 0 208.991434-54.270191 208.991433-129.0197 0-36.248392-21.264358-68.742242-59.355888-92.122795 0.61438-0.853305 1.194627-1.774874 1.740742-2.662312 22.356588 16.246925 47.10243 20.957168 69.902737 13.243292 68.264391-23.209893 71.950668-142.365388 40.822106-242.714043-16.519983-53.246225-46.897637-94.955768-72.223726-122.705243 0.341322-3.822806 0.477851-7.645612 0.477851-11.536682 0-29.421953-7.713876-57.9906-22.868571-85.057431v-0.375455C859.204976 157.48595 703.425636 0 512.012283 0 320.59893 0 164.887854 157.451818 164.887854 351.015499v1.22876a172.09453 172.09453 0 0 0-22.424853 84.204126c0 3.481484 0.102397 7.031232 0.409586 10.649245-25.633279 27.920136-56.386387 69.971001-73.042898 123.558548-31.128562 100.416919-27.408153 219.538282 40.787974 242.714043z m8.055198-227.491084c15.496017-49.969534 46.214993-88.402387 69.220092-111.885337a25.599147 25.599147 0 0 0 6.997101-21.912869 101.372621 101.372621 0 0 1-1.297024-15.598414c0-22.049398 6.416853-43.757475 19.011633-64.509849a25.940469 25.940469 0 0 0 3.686277-15.052299 81.268758 81.268758 0 0 1-0.238925-5.90487c0-165.302223 132.774241-299.783074 295.9944-299.783073 163.186027 0 295.960268 134.480851 295.960268 299.783073 0 1.774874-0.068264 3.515616-0.170661 5.256359-0.341322 5.29049 0.955701 10.580981 3.754542 15.08643 12.833706 20.888904 19.318823 42.801773 19.318822 65.090097 0 5.256358-0.443719 10.580981-1.365288 16.212793a25.565014 25.565014 0 0 0 6.928836 22.083531c22.732042 23.278157 53.109696 61.506216 68.503317 111.134428 27.374021 88.231726 17.782874 170.114863-8.362388 178.989234-13.516349 4.607846-29.592614-9.864205-39.593347-21.810473a25.530882 25.530882 0 0 0-42.187394 4.437185 330.19486 330.19486 0 0 1-31.742942 48.80904 25.667411 25.667411 0 0 0 10.307923 39.422686c35.702277 14.881637 56.181594 36.487317 56.181594 59.219359 0 42.90417-70.790174 77.787274-157.79314 77.787274-56.420519 0-108.915836-15.08643-137.006633-39.388553a25.599147 25.599147 0 0 0-18.602047-6.143796 298.554315 298.554315 0 0 1-48.638378 0 24.848238 24.848238 0 0 0-18.704444 6.143796c-28.090797 24.302123-80.620246 39.388554-137.040765 39.388553-86.968834 0-157.759008-34.883104-157.759008-77.787274 0-22.834439 20.581714-44.474251 56.420519-59.355888a25.565014 25.565014 0 0 0 10.376188-39.456818 332.68651 332.68651 0 0 1-31.742942-48.809039 25.599147 25.599147 0 0 0-42.28979-4.471318c-10.034866 12.014533-25.940469 26.793774-39.729876 21.981134-26.179394-8.874371-35.770541-90.689244-8.39652-178.955102z" p-id="11356" fill="#ffffff"></path></svg>