<?xml version="1.0" standalone="no"?><!DOCTYPE svg PUBLIC "-//W3C//DTD SVG 1.1//EN" "http://www.w3.org/Graphics/SVG/1.1/DTD/svg11.dtd"><svg t="1596621459850" class="icon" viewBox="0 0 1024 1024" version="1.1" xmlns="http://www.w3.org/2000/svg" p-id="6216" xmlns:xlink="http://www.w3.org/1999/xlink" width="200" height="200"><defs><style type="text/css"></style></defs><path d="M606.002 87.759c-5.339 53.336-32.018 399.109-37.138 460.311-7.33 87.631-14.245 162.813-21.152 228.326-1.647 15.623 9.683 29.623 25.306 31.27 15.623 1.646 29.623-9.683 31.27-25.306 6.955-65.976 13.906-141.542 21.267-229.548 5.17-61.795 31.79-406.81 37.053-459.388 1.565-15.63-9.839-29.571-25.47-31.136-15.631-1.564-29.571 9.84-31.136 25.47z" p-id="6217" fill="#ffffff"></path><path d="M620.14 112.932l125.034 92.648c12.622 9.353 30.436 6.703 39.789-5.919 9.352-12.622 6.702-30.436-5.92-39.789L654.01 67.224c-12.622-9.353-30.436-6.703-39.789 5.92-9.352 12.621-6.702 30.435 5.92 39.788zM466.984 607c-24.939-7.474-51.47-10.65-78.435-9.237-112.62 5.902-201.35 90.403-196.079 190.992 5.272 100.588 102.35 175.352 214.968 169.45 104.536-5.48 189.54-78.973 195.921-171.551 1.08-15.673-10.749-29.253-26.421-30.334-15.672-1.08-29.253 10.75-30.333 26.422-4.288 62.206-64.89 114.603-142.144 118.651-83.02 4.351-151.663-48.514-155.18-115.616-3.517-67.102 59.225-126.853 142.245-131.204 20.448-1.071 40.447 1.323 59.126 6.922 15.048 4.51 30.903-4.033 35.413-19.081 4.51-15.048-4.033-30.903-19.08-35.413z" p-id="6218" fill="#ffffff"></path></svg>