<?xml version="1.0" standalone="no"?><!DOCTYPE svg PUBLIC "-//W3C//DTD SVG 1.1//EN" "http://www.w3.org/Graphics/SVG/1.1/DTD/svg11.dtd"><svg t="1596881533060" class="icon" viewBox="0 0 1024 1024" version="1.1" xmlns="http://www.w3.org/2000/svg" p-id="6244" xmlns:xlink="http://www.w3.org/1999/xlink" width="200" height="200"><defs><style type="text/css"></style></defs><path d="M331.584 994.986667a452.48 452.48 0 0 1-138.88-22.186667c-38.592-12.330667-64.576-33.706667-73.173333-60.181333-6.336-19.626667-2.325333-40.618667 11.349333-59.157334 14.656-19.925333 36.928-36.352 58.090667-43.52a1680.32 1680.32 0 0 1-38.293334-71.957333c-22.826667 20.650667-56.810667 41.194667-104.938666 33.642667l-13.546667-2.154667-7.573333-15.893333c-13.824-37.482667 36.714667-211.349333 98.389333-290.026667-1.898667-85.589333 11.008-234.858667 109.248-336.64 65.898667-68.309333 158.741333-102.912 275.882667-102.912h6.229333c117.781333 0 211.072 34.752 277.312 103.232 98.346667 101.696 111.381333 249.621333 109.546667 334.016 51.562667 72.448 113.898667 234.752 100.608 284.842667-4.053333 15.445333-13.930667 21.610667-19.413334 23.978666-8.32 3.498667-17.557333 5.290667-27.477333 5.290667-29.589333 0-61.738667-16.021333-83.242667-34.986667a1263.786667 1263.786667 0 0 1-36.608 70.186667c25.749333 9.621333 43.776 24.384 60.501334 47.893333 12.032 17.130667 15.488 36.437333 9.664 54.485334-7.786667 24.234667-31.68 44.416-67.2 56.789333-92.138667 32.234667-197.248 32.149333-281.834667 2.325333l-13.141333-4.842666c-4.949333-1.92-9.216-3.626667-15.146667-5.205334-1.493333-0.448-7.061333-2.197333-17.536-2.197333l-15.232 1.045333-7.104 2.410667c-4.608 1.493333-9.728 3.136-12.032 4.16-8.213333 4.906667-64.149333 27.562667-144.448 27.562667zM157.376 677.653333c19.306667 0 25.536 17.344 28.522667 25.642667 3.114667 8.192 37.802667 74.901333 47.914666 90.453333 8.853333 13.525333 11.008 26.176 6.272 37.397334-4.714667 11.285333-15.296 18.624-31.381333 21.781333-11.029333 2.005333-28.608 12.544-40.192 28.245333-6.229333 8.448-5.546667 13.76-4.458667 17.045334 2.858667 8.810667 15.637333 21.312 42.965334 30.037333 41.024 13.248 82.922667 19.968 124.586666 19.968 66.666667 0 114.197333-17.621333 122.389334-21.952 2.346667-1.6 6.101333-2.986667 19.285333-7.36 3.477333-1.152 6.677333-2.197333 8.149333-2.794667l7.338667-1.685333 20.074667-1.344c19.690667 1.194667 31.274667 3.669333 33.322666 4.437333 5.781333 1.450667 11.285333 3.562667 17.706667 6.016l10.410667 3.904c77.056 27.114667 170.581333 26.666667 252.309333-1.877333 24.469333-8.490667 35.712-19.498667 38.122667-27.008 0.490667-1.536 1.877333-5.76-3.328-13.141333-13.781333-19.349333-26.709333-28.586667-47.701334-33.962667-6.805333-1.749333-22.826667-5.845333-28.437333-21.333333-5.589333-15.296 4.010667-28.501333 7.104-32.832 9.237333-12.736 42.325333-78.208 46.314667-87.936 4.48-11.114667 12.138667-29.909333 32.042666-29.909334 10.325333 0 19.328 5.397333 26.666667 15.936 10.410667 15.018667 40.298667 33.216 61.568 33.216 0.810667 0 1.685333-0.064 2.453333-0.106666 1.365333-38.592-49.216-181.418667-98.304-245.653334l-5.056-6.613333 0.277334-8.362667c2.56-75.285333-6.570667-215.466667-96.213334-308.117333-57.130667-59.050667-139.114667-89.002667-243.712-89.002667h-6.229333c-103.978667 0-185.472 29.824-242.24 88.64-89.749333 92.949333-98.602667 235.008-95.914667 311.402667l0.341334 9.130667-5.994667 6.933333c-52.224 60.629333-90.922667 193.706667-95.381333 239.488 21.184-1.002667 40.042667-11.370667 60.693333-33.237333 6.826667-7.36 15.36-15.445333 27.712-15.445334z" fill="#cdcdcd" p-id="6245"></path></svg>